<svg width="24" height="24" viewBox="0 0 24 24" fill="none" xmlns="http://www.w3.org/2000/svg">
<path fill-rule="evenodd" clip-rule="evenodd" d="M4.25183 7.3159C2.82854 8.45454 2 10.1784 2 12.0011V17.1174C2 19.8788 4.23858 22.1174 7 22.1174H17C19.7614 22.1174 22 19.8788 22 17.1174V12.0011C22 10.1784 21.1715 8.45454 19.7482 7.3159L14.4988 3.11639C13.0379 1.94769 10.9621 1.94769 9.50122 3.11639L4.25183 7.3159ZM12 15.1174C11.4477 15.1174 11 15.5651 11 16.1174V19.1174C11 19.6697 11.4477 20.1174 12 20.1174C12.5523 20.1174 13 19.6697 13 19.1174V16.1174C13 15.5651 12.5523 15.1174 12 15.1174Z" fill="#6666FF"/>
</svg>
