<svg width="24" height="24" viewBox="0 0 24 24" fill="none" xmlns="http://www.w3.org/2000/svg">
<path fill-rule="evenodd" clip-rule="evenodd" d="M7 3C4.79086 3 3 4.79086 3 7V17C3 19.2091 4.79086 21 7 21H17C19.2091 21 21 19.2091 21 17V7C21 4.79086 19.2091 3 17 3H7ZM7.75 7C7.33579 7 7 7.33579 7 7.75C7 8.16421 7.33579 8.5 7.75 8.5H16.25C16.6642 8.5 17 8.16421 17 7.75C17 7.33579 16.6642 7 16.25 7H7.75ZM7.75 11C7.33579 11 7 11.3358 7 11.75C7 12.1642 7.33579 12.5 7.75 12.5H13.25C13.6642 12.5 14 12.1642 14 11.75C14 11.3358 13.6642 11 13.25 11H7.75ZM7 15.75C7 15.3358 7.33579 15 7.75 15H16.25C16.6642 15 17 15.3358 17 15.75C17 16.1642 16.6642 16.5 16.25 16.5H7.75C7.33579 16.5 7 16.1642 7 15.75Z" fill="#6666FF"/>
</svg>
