<svg width="24" height="24" viewBox="0 0 24 24" fill="none" xmlns="http://www.w3.org/2000/svg">
<path fill-rule="evenodd" clip-rule="evenodd" d="M19.5 6.5V17.5C19.5 18.0523 19.0523 18.5 18.5 18.5C17.9477 18.5 17.5 18.0523 17.5 17.5V6.5C17.5 5.94772 17.9477 5.5 18.5 5.5C19.0523 5.5 19.5 5.94772 19.5 6.5ZM16 6.5C16 5.11929 17.1193 4 18.5 4C19.8807 4 21 5.11929 21 6.5V17.5C21 18.8807 19.8807 20 18.5 20C17.1193 20 16 18.8807 16 17.5V6.5ZM12.5 11.5C12.5 10.9477 12.0523 10.5 11.5 10.5C10.9477 10.5 10.5 10.9477 10.5 11.5V17.5C10.5 18.0523 10.9477 18.5 11.5 18.5C12.0523 18.5 12.5 18.0523 12.5 17.5V11.5ZM11.5 9C10.1193 9 9 10.1193 9 11.5V17.5C9 18.8807 10.1193 20 11.5 20C12.8807 20 14 18.8807 14 17.5V11.5C14 10.1193 12.8807 9 11.5 9ZM5.5 17.5V15.5C5.5 14.9477 5.05228 14.5 4.5 14.5C3.94772 14.5 3.5 14.9477 3.5 15.5V17.5C3.5 18.0523 3.94772 18.5 4.5 18.5C5.05228 18.5 5.5 18.0523 5.5 17.5ZM4.5 13C3.11929 13 2 14.1193 2 15.5V17.5C2 18.8807 3.11929 20 4.5 20C5.88071 20 7 18.8807 7 17.5V15.5C7 14.1193 5.88071 13 4.5 13Z" fill="#6666FF"/>
</svg>
